<svg width="32" height="33" viewBox="0 0 32 33" fill="none" xmlns="http://www.w3.org/2000/svg">
<path d="M26.7427 22.9L26.8761 23.0333C27.1787 23.3386 27.5537 23.5623 27.9661 23.6838C28.3785 23.8052 28.8149 23.8204 29.2347 23.728C29.6478 23.6413 30.0324 23.4521 30.3532 23.1779C30.674 22.9036 30.9208 22.5532 31.0707 22.1586C31.8069 20.2257 32.1588 18.1677 32.1067 16.1C31.9567 12.0386 30.2862 8.18194 27.4265 5.29427C24.5667 2.40661 20.7264 0.698781 16.6667 0.509298C14.52 0.434655 12.3803 0.793018 10.3751 1.56302C8.36986 2.33302 6.54021 3.4989 4.9952 4.99114C3.4502 6.48339 2.22149 8.27144 1.38231 10.2487C0.543132 12.226 0.110673 14.352 0.110718 16.5C0.115658 20.7419 1.80295 24.8087 4.80247 27.8082C7.80198 30.8077 11.8688 32.495 16.1107 32.5C16.5614 32.5 17.0041 32.4706 17.4441 32.4333C17.7779 32.4052 18.0889 32.2524 18.3153 32.0053C18.5416 31.7582 18.6666 31.435 18.6654 31.1L18.6227 26.316C18.6119 25.3706 18.8831 24.4435 19.4017 23.6529C19.9203 22.8624 20.6627 22.2444 21.5342 21.8778C22.4056 21.5112 23.3666 21.4126 24.2943 21.5947C25.222 21.7767 26.0745 22.2312 26.7427 22.9ZM22.8201 11.2333C23.2024 11.1319 23.6062 11.146 23.9804 11.2741C24.3546 11.4021 24.6825 11.6382 24.9226 11.9526C25.1626 12.267 25.304 12.6455 25.329 13.0402C25.354 13.435 25.2613 13.8282 25.0628 14.1703C24.8642 14.5124 24.5687 14.788 24.2136 14.9621C23.8584 15.1363 23.4596 15.2012 23.0676 15.1487C22.6756 15.0962 22.3079 14.9287 22.0111 14.6672C21.7143 14.4058 21.5016 14.0622 21.4001 13.68C21.3326 13.4261 21.3158 13.1614 21.3507 12.901C21.3855 12.6406 21.4713 12.3897 21.6032 12.1625C21.7351 11.9353 21.9104 11.7363 22.1192 11.5768C22.328 11.4174 22.5661 11.3007 22.8201 11.2333ZM10.5134 23.1C10.1311 23.2014 9.72728 23.1872 9.35304 23.0592C8.9788 22.9311 8.65093 22.695 8.41088 22.3806C8.17083 22.0663 8.02939 21.6878 8.00443 21.2931C7.97947 20.8983 8.07212 20.505 8.27067 20.1629C8.46921 19.8208 8.76474 19.5453 9.11987 19.3711C9.475 19.197 9.8738 19.1321 10.2658 19.1845C10.6579 19.237 11.0255 19.4046 11.3224 19.666C11.6192 19.9275 11.8318 20.271 11.9334 20.6533C12.0008 20.9072 12.0176 21.1719 11.9828 21.4323C11.9479 21.6926 11.8621 21.9436 11.7302 22.1708C11.5984 22.398 11.423 22.597 11.2142 22.7564C11.0054 22.9159 10.7673 23.0326 10.5134 23.1ZM10.5134 15.1C10.1311 15.2014 9.72728 15.1872 9.35304 15.0592C8.9788 14.9311 8.65093 14.695 8.41088 14.3806C8.17083 14.0663 8.02939 13.6878 8.00443 13.2931C7.97947 12.8983 8.07212 12.505 8.27067 12.1629C8.46921 11.8208 8.76474 11.5453 9.11987 11.3711C9.475 11.197 9.8738 11.1321 10.2658 11.1845C10.6579 11.237 11.0255 11.4046 11.3224 11.666C11.6192 11.9275 11.8318 12.271 11.9334 12.6533C12.0008 12.9072 12.0176 13.1719 11.9828 13.4323C11.9479 13.6926 11.8621 13.9436 11.7302 14.1708C11.5984 14.398 11.423 14.597 11.2142 14.7564C11.0054 14.9159 10.7673 15.0326 10.5134 15.1ZM17.1801 11.1C16.7977 11.2014 16.3939 11.1872 16.0197 11.0592C15.6455 10.9311 15.3176 10.695 15.0775 10.3806C14.8375 10.0663 14.6961 9.6878 14.6711 9.29305C14.6461 8.89831 14.7388 8.50502 14.9373 8.16293C15.1359 7.82084 15.4314 7.5453 15.7865 7.37115C16.1417 7.197 16.5405 7.13206 16.9325 7.18455C17.3245 7.23703 17.6922 7.40459 17.989 7.66602C18.2859 7.92745 18.4985 8.27102 18.6001 8.6533C18.6675 8.90719 18.6843 9.17188 18.6494 9.43225C18.6146 9.69263 18.5288 9.94359 18.3969 10.1708C18.265 10.398 18.0897 10.597 17.8809 10.7564C17.6721 10.9159 17.434 11.0326 17.1801 11.1Z" fill="#FF782D"/>
</svg>
