<svg width="31" height="27" viewBox="0 0 31 27" fill="none" xmlns="http://www.w3.org/2000/svg">
<path d="M2.42387 11.7755C0.0197119 9.78537 -0.0576361 6.86344 0.916037 4.97615C1.98253 2.90596 4.19559 1.73573 6.54969 2.05422C8.54618 2.32449 10.6346 3.8032 11.1678 6.56315C11.6556 2.9915 13.5674 0.794819 17.2728 0.570055C19.8726 0.412629 22.1831 2.0433 23.1385 4.42835C24.0622 6.73423 23.5853 9.68072 21.1575 11.6399C21.2303 11.6808 21.2931 11.72 21.3586 11.7509C22.78 12.4134 23.5571 13.5299 23.5762 15.0951C23.6081 17.7404 23.6054 20.3857 23.579 23.031C23.5571 25.1685 21.9747 26.7073 19.8435 26.7091C14.5875 26.7136 9.3324 26.7136 4.07638 26.7091C1.92702 26.7073 0.341843 25.1576 0.325463 23.01C0.305444 20.3757 0.305444 17.7422 0.327283 15.1078C0.339113 13.6892 0.992475 12.6154 2.22458 11.9002C2.2901 11.8619 2.3538 11.8192 2.42387 11.7755ZM17.4157 9.62158C19.0164 9.61521 20.3176 8.31121 20.3131 6.71785C20.3085 5.10992 18.9863 3.80411 17.3738 3.81685C15.7841 3.82959 14.4756 5.15906 14.4938 6.74333C14.5129 8.34852 15.8114 9.62795 17.4157 9.62158ZM7.94832 7.46312C7.95469 6.25194 6.98739 5.27099 5.78167 5.26553C4.58961 5.26007 3.59136 6.2574 3.59318 7.45129C3.595 8.64244 4.55867 9.61157 5.75255 9.62158C6.9701 9.6325 7.94104 8.67702 7.94832 7.46312ZM6.15294 21.6178C5.69887 21.6178 5.24479 21.6114 4.79071 21.6196C4.28658 21.6287 3.97628 21.9053 3.96991 22.3367C3.96354 22.7844 4.27749 23.0765 4.79799 23.0801C5.69523 23.0874 6.59155 23.0874 7.48879 23.0801C7.98563 23.0756 8.30867 22.7853 8.31777 22.363C8.32687 21.9308 7.992 21.6278 7.4806 21.6196C7.03835 21.6123 6.59519 21.6178 6.15294 21.6178ZM9.50347 11.4297C10.8248 11.4297 12.0769 11.4297 13.4064 11.4297C12.1752 10.3541 11.5009 9.03919 11.2406 7.49951C11.1978 9.03191 10.6127 10.3168 9.50347 11.4297Z" fill="#FF782D"/>
<path d="M32.3065 19.079C32.3065 20.4986 32.3147 21.9173 32.3038 23.3368C32.2929 24.75 31.27 25.7364 29.9178 25.6108C29.5811 25.5799 29.2326 25.4425 28.9341 25.2751C27.6993 24.5798 26.4827 23.8509 25.2551 23.1439C25.0858 23.0465 25.0294 22.9355 25.0294 22.7426C25.0358 20.302 25.0358 17.8606 25.0294 15.42C25.0285 15.228 25.0831 15.1152 25.2533 15.0178C26.4817 14.3108 27.7002 13.5873 28.9296 12.8812C30.5339 11.9594 32.2865 12.9667 32.3038 14.824C32.3174 16.2408 32.3065 17.6604 32.3065 19.079Z" fill="#FF782D"/>
</svg>
