<svg width="29" height="27" viewBox="0 0 29 27" fill="none" xmlns="http://www.w3.org/2000/svg">
<path d="M26.9383 3.46589C26.9366 3.22922 26.8991 2.98839 26.8416 2.75839C26.4591 1.21172 25.1816 0.229221 23.5291 0.221721C21.5433 0.213387 19.5583 0.220054 17.5724 0.220054C13.1958 0.220054 8.81994 0.215887 4.44327 0.221721C2.43661 0.224221 0.993275 1.64339 0.991608 3.61505C0.986608 9.56255 0.988275 15.5101 0.994108 21.4576C0.994108 21.7351 1.02411 22.0201 1.08994 22.2892C1.45911 23.8109 2.73161 24.8267 4.33327 24.8326C8.14827 24.8476 11.9633 24.8376 15.7791 24.8376C15.8399 24.8376 15.9016 24.8284 16.0116 24.8201C16.0116 24.7151 16.0174 24.6334 16.0108 24.5534C15.9274 23.5192 16.2283 22.5992 16.7541 21.7117C18.0024 19.6026 19.2058 17.4667 20.4433 15.3509C20.7608 14.8067 21.0749 14.2784 20.9608 13.6126C20.9583 13.5959 20.9749 13.5759 20.9966 13.5234C21.4941 13.6851 21.6299 13.2892 21.8149 12.9617C21.8608 12.8809 21.9074 12.8001 21.9541 12.7184C22.1741 12.3351 22.3941 11.9526 22.6433 11.5201H20.9791V7.55172H24.9366C24.9449 7.71339 24.9516 7.86089 24.9583 7.99005C25.2891 7.86839 25.5899 7.71839 25.9083 7.65172C26.2366 7.58339 26.5808 7.59755 26.9349 7.57422C26.9383 7.52755 26.9441 7.47755 26.9441 7.42755C26.9441 6.10672 26.9474 4.78589 26.9383 3.46589ZM6.95494 22.8209C5.98494 22.8209 5.02077 22.8534 4.06077 22.8084C3.51911 22.7826 3.03744 22.2542 3.00577 21.6934C2.96577 20.9817 2.99577 20.2651 2.99577 19.5234H6.95494V22.8209ZM6.95661 17.5009H3.00411V13.5426H6.95661V17.5009ZM6.96327 11.5059H3.00827V7.55089H6.96327V11.5059ZM6.96327 5.52255H2.98661V4.86089C2.98661 4.41422 2.97911 3.96755 2.98911 3.52089C3.00244 2.88755 3.45827 2.28339 4.05827 2.25089C5.01911 2.19922 5.98411 2.23672 6.96327 2.23672V5.52255ZM17.5166 14.0851C16.1841 14.8492 14.8558 15.6192 13.5249 16.3876C13.1658 16.5951 12.8066 16.8042 12.4466 17.0101C11.3541 17.6342 10.3024 17.0317 10.2983 15.7784C10.2949 14.8017 10.2974 13.8251 10.2974 12.8476C10.2974 11.8817 10.2958 10.9151 10.2983 9.94839C10.3016 8.68922 11.3533 8.08505 12.4433 8.71339C14.1424 9.69339 15.8408 10.6759 17.5408 11.6542C17.9966 11.9167 18.2766 12.2884 18.2874 12.8292C18.2983 13.4101 18.0058 13.8042 17.5166 14.0851ZM24.9483 5.51422H20.9666V2.23922C21.0566 2.23172 21.1449 2.21755 21.2333 2.21755C21.9916 2.21589 22.7499 2.21339 23.5083 2.21755C24.4091 2.22255 24.9441 2.75672 24.9474 3.65089C24.9499 4.26422 24.9483 4.87672 24.9483 5.51422Z" fill="#FF782D"/>
<path d="M24.0832 11.6951C22.0474 15.2226 20.0224 18.7309 17.9857 22.2592C19.1557 22.9342 20.2916 23.5901 21.4457 24.2559C23.4866 20.7209 25.5116 17.2126 27.5432 13.6917C26.3699 13.0142 25.2399 12.3626 24.0832 11.6951ZM24.2349 16.7301C24.0432 17.0409 23.6607 17.1001 23.3557 16.9159C23.0674 16.7409 22.9374 16.3826 23.1032 16.0759C23.4382 15.4551 23.7891 14.8417 24.1666 14.2459C24.2641 14.0926 24.4841 14.0159 24.6482 13.9042C25.1757 13.9542 25.5216 14.4551 25.2924 14.8976C24.9674 15.5234 24.6057 16.1309 24.2349 16.7301Z" fill="#FF782D"/>
<path d="M26.9441 21.4117C26.9374 23.385 25.5299 24.8084 23.5599 24.8375C23.2807 24.8409 23.0016 24.8375 22.6449 24.8375C23.0391 24.155 23.3982 23.5267 23.7674 22.905C23.8024 22.8467 23.8999 22.8167 23.9741 22.79C24.6182 22.5634 24.9624 22.1134 24.9399 21.4309C24.9266 21.0184 25.0332 20.6717 25.2441 20.3217C25.8041 19.3909 26.3366 18.4425 26.9216 17.4292C26.9324 17.595 26.9441 17.6809 26.9441 17.7667C26.9449 18.9817 26.9474 20.1967 26.9441 21.4117Z" fill="#FF782D"/>
<path d="M28.7957 11.51C28.6232 11.8508 28.4182 12.175 28.2099 12.5383C27.0407 11.8642 25.9041 11.2083 24.7466 10.5408C24.9707 10.1608 25.1599 9.79083 25.3941 9.45333C25.7641 8.92083 26.4741 8.75667 27.0583 9.06167C27.4899 9.28667 27.9124 9.53083 28.3233 9.79167C28.9158 10.1667 29.1124 10.8858 28.7957 11.51Z" fill="#FF782D"/>
<path d="M20.6966 25.3634C20.5008 25.5067 20.3533 25.6376 20.1858 25.7334C19.5916 26.0734 18.9949 26.4092 18.3916 26.7326C17.9391 26.9759 17.4208 26.7634 17.3924 26.2834C17.3433 25.4351 17.3633 24.5826 17.3583 23.7309C17.3583 23.6617 17.3924 23.5909 17.4233 23.4734C18.5233 24.1084 19.5874 24.7234 20.6966 25.3634Z" fill="#FF782D"/>
</svg>
