<svg width="20" height="21" viewBox="0 0 20 21" fill="none" xmlns="http://www.w3.org/2000/svg">
<path d="M11.8612 6.58727C11.8509 7.19053 11.8591 7.79325 11.8591 8.41772C11.945 8.42153 12.0163 8.42806 12.0881 8.42806C12.7936 8.4286 13.4997 8.42752 14.2057 8.4286C14.6333 8.42969 14.7388 8.53468 14.7394 8.95462C14.7405 9.76242 14.741 10.5702 14.7394 11.378C14.7383 11.7523 14.6453 11.8469 14.2688 11.8485C13.5492 11.8518 12.83 11.8496 12.1104 11.8496H11.8602V18.4763C11.8602 19.0752 11.8014 19.1328 11.1927 19.1328C10.4186 19.1328 9.64511 19.1334 8.87158 19.1323C8.44184 19.1318 8.3423 19.0333 8.34175 18.6068C8.34121 16.4554 8.34175 14.3035 8.34175 12.1515V11.8872C8.25907 11.8823 8.18781 11.8747 8.11655 11.8747C7.52634 11.8736 6.93559 11.8752 6.34539 11.8736C5.93578 11.8719 5.83677 11.7767 5.83569 11.3709C5.83242 10.5767 5.83297 9.78254 5.83514 8.98835C5.83623 8.56623 5.93306 8.47158 6.35028 8.47103C6.93396 8.47049 7.51764 8.47103 8.10132 8.47103H8.34175C8.34175 8.3704 8.34067 8.29098 8.34175 8.21156C8.3559 7.43804 8.32815 6.66125 8.39343 5.89262C8.5588 3.95772 10.0466 2.557 11.9907 2.4841C12.8039 2.45364 13.6188 2.47105 14.4337 2.47322C14.7029 2.47431 14.8183 2.59072 14.8199 2.86162C14.8242 3.66941 14.8242 4.47721 14.8199 5.285C14.8183 5.55971 14.7051 5.6685 14.4103 5.67557C13.8609 5.68863 13.3109 5.68917 12.7615 5.69733C12.124 5.70712 11.8727 5.9481 11.8612 6.58727Z" fill="#555555"/>
</svg>
