<svg width="20" height="21" viewBox="0 0 20 21" fill="none" xmlns="http://www.w3.org/2000/svg">
<path d="M18.3299 7.10944C18.3185 5.31312 17.5176 3.95009 15.9679 3.04276C15.2859 2.6433 14.5323 2.47048 13.7419 2.47007C11.247 2.46803 8.75203 2.46192 6.25708 2.4717C4.22639 2.47945 2.52993 3.71897 1.88755 5.65469C1.79298 5.94002 1.75834 6.24572 1.69638 6.54205C1.68538 6.59463 1.67641 6.64762 1.66663 6.7002V14.902C1.71146 15.1515 1.73592 15.4066 1.80399 15.6496C2.32083 17.4944 3.5196 18.6275 5.38847 19.0498C5.556 19.0877 5.72841 19.1057 5.89838 19.133H14.1018C14.3517 19.0881 14.6069 19.0637 14.8502 18.9956C16.693 18.4796 17.8294 17.2829 18.2452 15.416C18.312 15.1172 18.3291 14.8026 18.3299 14.4952C18.3365 12.0333 18.3454 9.57137 18.3299 7.10944ZM10.0075 15.3683C7.49824 15.3826 5.43086 13.3185 5.43208 10.8003C5.43331 8.28456 7.46685 6.24816 9.99278 6.2339C12.502 6.21963 14.5694 8.28334 14.5681 10.8015C14.5669 13.3173 12.5334 15.3537 10.0075 15.3683ZM14.8437 7.34625C14.0896 7.34381 13.4554 6.70876 13.4558 5.95632C13.4558 5.20143 14.088 4.57209 14.8457 4.57291C15.6075 4.57331 16.2316 5.19817 16.2295 5.95877C16.2279 6.71691 15.5969 7.3487 14.8437 7.34625Z" fill="#555555"/>
<path d="M1.66663 14.9023C1.71146 15.1518 1.73592 15.407 1.80399 15.6499C2.32083 17.4947 3.5196 18.6279 5.38847 19.0501C5.556 19.088 5.72841 19.106 5.89838 19.1333C4.48766 19.1333 3.07694 19.1333 1.66663 19.1333C1.66663 17.723 1.66663 16.3127 1.66663 14.9023Z" fill="white"/>
<path d="M13.5837 10.8089C13.5772 12.7907 11.9598 14.3971 9.98458 14.384C8.00606 14.371 6.40988 12.765 6.4164 10.7935C6.42292 8.81208 8.04071 7.20489 10.016 7.21835C11.9945 7.23139 13.5903 8.83735 13.5837 10.8089Z" fill="#555555"/>
<path d="M15.2448 5.95499C15.2456 6.17428 15.0601 6.36096 14.8433 6.35974C14.6285 6.35851 14.4389 6.16531 14.4422 5.95091C14.4458 5.74018 14.6268 5.56002 14.8388 5.55716C15.0609 5.55431 15.2439 5.73366 15.2448 5.95499Z" fill="#555555"/>
</svg>
