<svg width="40" height="31" viewBox="0 0 40 31" fill="none" xmlns="http://www.w3.org/2000/svg">
<g clip-path="url(#clip0_1_1259)">
<path d="M16.8234 30.2565C11.3396 28.2702 5.70868 27.6827 0 27.3023V2.17442C0.177608 2.37095 0.299517 2.49075 0.40461 2.62422C1.46185 3.95996 2.52855 5.28729 3.55742 6.643C3.75709 6.90573 3.90422 7.28302 3.90528 7.60881C3.92629 12.5177 3.92629 17.4266 3.90423 22.3356C3.90107 22.9283 3.98935 23.1837 4.67666 23.2583C7.96084 23.6198 11.2313 24.0791 14.361 25.2235C14.7593 25.3696 14.9716 25.5882 15.1209 25.976C15.6558 27.3759 16.2254 28.762 16.8234 30.2565Z" fill="#FF782D"/>
<path d="M39.3008 2.16393V27.3023C33.611 27.6848 27.9833 28.2597 22.5289 30.247C22.5857 30.0568 22.6214 29.8918 22.6834 29.7384C23.1878 28.4741 23.7102 27.2172 24.1978 25.9466C24.3386 25.5788 24.5446 25.3717 24.9177 25.2341C27.4914 24.2893 30.1703 23.8269 32.8712 23.4601C33.5059 23.3739 34.1417 23.2583 34.7797 23.2362C35.2904 23.2194 35.3966 23.0145 35.3955 22.5426C35.3797 17.6326 35.3923 12.7237 35.3766 7.81375C35.3745 7.30405 35.4985 6.90364 35.8243 6.50639C36.8626 5.23476 37.8663 3.93265 38.8857 2.6442C38.9939 2.50653 39.1137 2.37937 39.3008 2.16393Z" fill="#FF782D"/>
<path d="M17.4918 17.6642C17.4834 18.5501 17.9268 19.1681 18.6972 19.5926C18.8832 19.6946 19.1165 19.9363 19.1176 20.1149C19.1417 23.5809 19.1354 27.0469 19.1323 30.5129C19.1323 30.5623 19.1028 30.6127 19.0429 30.7998C18.5816 29.6585 18.1633 28.6338 17.7534 27.606C16.2832 23.9288 14.8098 20.2516 13.3584 16.5659C13.2533 16.2969 13.2334 15.9385 13.3111 15.6611C13.7736 14.0248 14.2633 12.3969 14.7751 10.7753C14.8991 10.3843 14.8287 10.172 14.4945 9.93033C11.8461 8.01447 8.8846 6.79329 5.76122 5.91155C5.4617 5.82748 5.14747 5.61939 4.9499 5.37873C3.90842 4.1092 2.90163 2.81129 1.88432 1.5218C1.73824 1.33683 1.60162 1.14451 1.4072 0.882828C6.42331 1.16027 10.914 2.70725 15.0305 5.36086C16.2748 6.16273 17.4623 7.05287 18.6825 7.89257C19.0041 8.11431 19.1512 8.36864 19.1459 8.78586C19.1228 10.8888 19.1281 12.9928 19.1428 15.0967C19.1459 15.4583 19.0671 15.6569 18.6993 15.8166C17.9174 16.1561 17.5002 16.8045 17.4918 17.6642Z" fill="#FF782D"/>
<path d="M37.8694 0.937477C37.7034 1.15292 37.5384 1.36941 37.3702 1.5838C36.3655 2.85859 35.3713 4.14178 34.3446 5.3987C34.1586 5.6257 33.8632 5.82328 33.5805 5.9021C30.4729 6.77122 27.5324 7.99136 24.884 9.86833C24.4921 10.1458 24.4017 10.3906 24.552 10.8562C25.069 12.4557 25.5388 14.07 26.0043 15.6842C26.0706 15.9144 26.0926 16.2097 26.0075 16.4251C24.141 21.1312 22.2567 25.8299 20.3745 30.5297C20.3545 30.5812 20.3146 30.6264 20.2305 30.7588C20.2 30.557 20.1675 30.4372 20.1675 30.3174C20.1643 26.9702 20.1706 23.623 20.158 20.2768C20.1559 19.909 20.2515 19.7208 20.6109 19.5611C21.3876 19.2143 21.8059 18.569 21.8132 17.7073C21.8195 16.8171 21.3907 16.1634 20.5889 15.8072C20.2536 15.6579 20.1559 15.4856 20.158 15.1398C20.1717 12.9959 20.1569 10.851 20.178 8.70704C20.1801 8.48214 20.2904 8.17632 20.4575 8.046C24.3512 5.02036 28.5234 2.52649 33.4208 1.49868C34.8637 1.19496 36.3361 1.02891 37.7948 0.799805C37.819 0.846046 37.8442 0.891236 37.8694 0.937477Z" fill="#FF782D"/>
</g>
<defs>
<clipPath id="clip0_1_1259">
<rect width="39.3008" height="30" fill="white" transform="translate(0 0.799805)"/>
</clipPath>
</defs>
</svg>
