<svg width="20" height="21" viewBox="0 0 20 21" fill="none" xmlns="http://www.w3.org/2000/svg">
<path d="M16.4368 8.07923C16.4415 9.35287 16.2121 10.5826 15.6498 11.7334C15.039 12.9828 14.1339 13.9426 12.8083 14.4279C11.7985 14.7984 10.7665 14.8895 9.75679 14.4063C9.49086 14.2794 9.2499 14.1012 8.98532 13.9385C8.8996 14.2679 8.80578 14.6094 8.72276 14.9536C8.49733 15.8925 8.226 16.8158 7.80752 17.6906C7.60099 18.1219 7.37893 18.5444 7.02255 18.8758C6.95573 18.9379 6.87946 18.9919 6.80049 19.0391C6.49744 19.2194 6.19641 19.1357 6.03239 18.8252C5.86568 18.5093 5.83328 18.1637 5.82383 17.8155C5.79278 16.6235 6.00945 15.4653 6.29225 14.3138C6.6115 13.0152 6.91253 11.7112 7.21559 10.4085C7.23584 10.3208 7.22571 10.2161 7.19804 10.1291C6.86866 9.08897 6.84301 8.06911 7.41065 7.09717C7.72316 6.56261 8.17267 6.20083 8.80376 6.10162C9.69402 5.96122 10.4797 6.60311 10.5451 7.50215C10.5931 8.15213 10.4095 8.75756 10.2387 9.36772C10.0801 9.93063 9.90798 10.4895 9.75004 11.0524C9.6623 11.3649 9.6704 11.6767 9.83711 11.9663C10.1213 12.4577 10.5762 12.6176 11.1087 12.5697C11.7337 12.5144 12.1907 12.1566 12.5585 11.6754C13.029 11.0598 13.2895 10.3511 13.4461 9.60126C13.604 8.84328 13.6871 8.07856 13.575 7.30708C13.3948 6.06179 12.6996 5.21742 11.5103 4.83135C10.3103 4.4419 9.11086 4.49725 7.96884 5.06488C6.78497 5.65277 6.08504 6.6328 5.79683 7.90914C5.65104 8.55778 5.62405 9.21383 5.89133 9.84289C5.98515 10.0636 6.12284 10.2715 6.2693 10.4638C6.44412 10.6927 6.51499 10.9269 6.43737 11.207C6.3719 11.4419 6.31992 11.6801 6.25243 11.9143C6.12014 12.3773 5.78941 12.5292 5.35204 12.3341C4.48405 11.9474 3.94408 11.2623 3.64508 10.3869C3.15776 8.96207 3.24281 7.55209 3.89346 6.19746C4.84987 4.20769 6.47044 3.06837 8.60802 2.62965C8.94077 2.56148 9.28365 2.53853 9.6218 2.49331C9.65825 2.48858 9.69402 2.47576 9.7298 2.46631H10.6417C10.8239 2.48791 11.0061 2.50748 11.1884 2.53178C12.7414 2.73427 14.0745 3.37547 15.1072 4.56744C15.9752 5.56975 16.4328 6.74552 16.4368 8.07923Z" fill="#555555"/>
</svg>
