<svg width="12" height="12" viewBox="0 0 12 12" fill="none" xmlns="http://www.w3.org/2000/svg">
<path d="M10.6667 0H1.33333C0.593333 0 0 0.514286 0 1.14286V9.14286C0 9.77143 0.593333 10.2857 1.33333 10.2857H4L6 12L8 10.2857H10.6667C11.4 10.2857 12 9.77143 12 9.14286V1.14286C12 0.514286 11.4 0 10.6667 0ZM6.66667 9.14286H5.33333V8H6.66667V9.14286ZM8.04667 4.71429L7.44667 5.24C6.96667 5.65714 6.66667 6 6.66667 6.85714H5.33333V6.57143C5.33333 5.94286 5.63333 5.37143 6.11333 4.95429L6.94 4.23429C7.18667 4.02857 7.33333 3.74286 7.33333 3.42857C7.33333 2.8 6.73333 2.28571 6 2.28571C5.26667 2.28571 4.66667 2.8 4.66667 3.42857H3.33333C3.33333 2.16571 4.52667 1.14286 6 1.14286C7.47333 1.14286 8.66667 2.16571 8.66667 3.42857C8.66667 3.93143 8.42667 4.38857 8.04667 4.71429Z" fill="#FF782D"/>
</svg>
