<svg width="20" height="21" viewBox="0 0 20 21" fill="none" xmlns="http://www.w3.org/2000/svg">
<path fill-rule="evenodd" clip-rule="evenodd" d="M9.16663 4.13314C5.94496 4.13314 3.33329 6.74481 3.33329 9.96648C3.33329 13.1881 5.94496 15.7998 9.16663 15.7998C12.3883 15.7998 15 13.1881 15 9.96648C15 6.74481 12.3883 4.13314 9.16663 4.13314ZM1.66663 9.96648C1.66663 5.82434 5.02449 2.46648 9.16663 2.46648C13.3088 2.46648 16.6666 5.82434 16.6666 9.96648C16.6666 14.1086 13.3088 17.4665 9.16663 17.4665C5.02449 17.4665 1.66663 14.1086 1.66663 9.96648Z" fill="#FF782D"/>
<path fill-rule="evenodd" clip-rule="evenodd" d="M13.2858 14.0856C13.6113 13.7601 14.1389 13.7601 14.4643 14.0856L18.0893 17.7106C18.4148 18.036 18.4148 18.5636 18.0893 18.8891C17.7639 19.2145 17.2363 19.2145 16.9108 18.8891L13.2858 15.2641C12.9604 14.9386 12.9604 14.411 13.2858 14.0856Z" fill="#FF782D"/>
</svg>
