<svg width="20" height="21" viewBox="0 0 20 21" fill="none" xmlns="http://www.w3.org/2000/svg">
<path d="M16.986 17.7611C15.1305 15.0537 13.2734 12.3471 11.4171 9.64025C11.3928 9.60498 11.3706 9.56827 11.3404 9.52143C11.6655 9.14238 11.9891 8.76496 12.313 8.38771C13.9963 6.42717 15.6798 4.46645 17.3631 2.50573C17.3735 2.49344 17.3819 2.47951 17.3913 2.46631H15.9617C14.2145 4.50081 12.4672 6.5355 10.6922 8.60238C10.6709 8.56386 10.6557 8.53076 10.6354 8.50128C9.27242 6.51308 7.90903 4.52523 6.546 2.53702C6.53099 2.51496 6.52032 2.49 6.50748 2.46631H1.66663C1.70858 2.53503 1.74728 2.60592 1.79267 2.67211C3.83857 5.65641 5.88501 8.64035 7.93146 11.6245C7.9528 11.6556 7.97323 11.6874 8.00307 11.7324C7.83687 11.9274 7.66977 12.1243 7.50141 12.3204C5.59892 14.5359 3.69625 16.7512 1.79394 18.967C1.74873 19.0198 1.70894 19.0775 1.66663 19.133H3.0962C3.74363 18.3754 4.38979 17.6168 5.03848 16.8603C6.19173 15.5154 7.3466 14.1715 8.50076 12.8275C8.54289 12.7783 8.58629 12.7303 8.63657 12.673C8.66912 12.7124 8.69806 12.7428 8.72157 12.777C10.1524 14.863 11.5829 16.9493 13.0132 19.0359C13.0344 19.0668 13.0514 19.1006 13.0703 19.133H17.911C17.6029 18.6756 17.2978 18.2161 16.986 17.7611ZM15.7676 18.0969C15.1506 18.0975 14.5336 18.0942 13.9165 18.1C13.8017 18.1009 13.731 18.0682 13.6639 17.9721C10.3497 13.2174 7.03284 8.46421 3.7165 3.71088C3.68594 3.66712 3.65809 3.62137 3.60926 3.5465C4.21455 3.5465 4.78819 3.56928 5.35894 3.53781C5.69657 3.51919 5.88266 3.638 6.07382 3.91325C9.31221 8.57561 12.5634 13.2291 15.8118 17.8846C15.8539 17.945 15.8946 18.0063 15.9499 18.0873C15.8705 18.0917 15.8192 18.0967 15.7676 18.0969Z" fill="#555555"/>
</svg>
