<svg width="20" height="21" viewBox="0 0 20 21" fill="none" xmlns="http://www.w3.org/2000/svg">
<path d="M18.8684 6.52919C18.668 5.42172 17.9912 4.7108 16.9329 4.51725C16.4963 4.43708 16.0517 4.37867 15.6082 4.35863C13.7274 4.2736 11.8457 4.20688 9.96431 4.1333C9.96374 4.15277 9.96317 4.17224 9.96259 4.19171C9.52997 4.19171 9.09706 4.18541 8.66473 4.19285C6.87096 4.22292 5.07691 4.24267 3.29259 4.46543C2.18283 4.60372 1.41407 5.26367 1.18302 6.36084C1.05389 6.97355 0.983456 7.60173 0.932491 8.22675C0.823405 9.56356 0.796492 10.9047 0.891548 12.2435C0.950529 13.0715 1.02612 13.9021 1.16383 14.7201C1.3445 15.7915 2.08291 16.4998 3.12252 16.6542C3.7381 16.7455 4.35969 16.8234 4.98099 16.8437C6.88814 16.9055 8.79643 16.9628 10.7044 16.9723C12.6064 16.982 14.5093 16.9368 16.4038 16.7378C16.8923 16.6862 17.3736 16.6084 17.8005 16.3349C18.5065 15.8828 18.8278 15.2034 18.9048 14.4054C19.0087 13.3257 19.1141 12.2435 19.1496 11.1603C19.2008 9.61052 19.1453 8.06126 18.8684 6.52919ZM8.18715 13.3183V7.84538C9.77563 8.75844 11.3475 9.66205 12.9471 10.5817C11.3498 11.5002 9.77821 12.4035 8.18715 13.3183Z" fill="#555555"/>
</svg>
